<svg
  width="64"
  height="64"
  viewBox="0 0 64 64"
  fill="none"
  xmlns="http://www.w3.org/2000/svg"
>
  <path
    d="M32 4C25.7 8 18.8 8.5 13 8.5V28C13 40.5 20.4 51.3 32 59C43.6 51.3 51 40.5 51 28V8.5C45.2 8.5 38.3 8 32 4Z"
    fill="#1F3A5C"
  />
  <path
    d="M11.5 30L31.7 12.6L43.2 22.2L58 9.5L31.2 36L22.5 27.6L11.5 30Z"
    fill="#FFFFFF"
  />
  <path
    d="M17.5 33L24.6 29L31.7 35.7L55.4 11.6L32.1 47.5L17.5 33Z"
    fill="#94CD45"
  />
  <path
    d="M18.8 29.5L31.8 18.3L42.2 27V36.5H22.1L18.8 29.5Z"
    fill="#1F3A5C"
  />
  <rect x="21.2" y="15.8" width="2.4" height="6" fill="#FFFFFF" />
  <rect x="30.2" y="23.2" width="2.8" height="2.8" fill="#FFFFFF" />
  <rect x="33.8" y="23.2" width="2.8" height="2.8" fill="#FFFFFF" />
  <rect x="30.2" y="26.8" width="2.8" height="2.8" fill="#FFFFFF" />
  <rect x="33.8" y="26.8" width="2.8" height="2.8" fill="#FFFFFF" />
</svg>
